<svg width="62" height="62" viewBox="0 0 62 62" fill="none" xmlns="http://www.w3.org/2000/svg">
<path d="M1 21.52V11.252C1.00013 8.92506 1.80643 6.67003 3.28174 4.87056C4.75706 3.07109 6.81024 1.83833 9.092 1.382C10.3609 1.12798 11.6519 1.00003 12.946 1C14.3114 0.999813 15.6732 1.14225 17.009 1.425L18.902 1.825C22.5886 2.6036 26.3461 2.99737 30.114 3H30.2C31.3746 3.00048 32.5227 3.34841 33.5 4C34.4773 4.65154 35.6254 4.99946 36.8 5C38.2084 5.00057 39.559 5.56022 40.555 6.556L41.776 7.777C43.1993 9.20137 43.9992 11.1324 44 13.146C44 13.6377 44.1953 14.1093 44.543 14.457C44.8907 14.8047 45.3623 15 45.854 15C46.1983 14.9999 46.5357 14.904 46.8286 14.723C47.1214 14.5419 47.3581 14.2829 47.512 13.975L48.661 11.675C49.0638 10.8709 49.6825 10.1948 50.4477 9.72235C51.213 9.24991 52.0947 8.99979 52.994 9C54.2787 8.99988 55.5107 8.48945 56.419 7.581L57.379 6.621C57.576 6.42402 57.8098 6.26778 58.0672 6.16123C58.3246 6.05467 58.6004 5.99989 58.879 6C59.4414 6.00027 59.9808 6.22381 60.3785 6.62152C60.7762 7.01923 60.9997 7.55856 61 8.121C61.0001 9.03382 60.8203 9.93772 60.471 10.7811C60.1216 11.6244 59.6096 12.3906 58.964 13.036L53.7 18.3C53.1606 18.8399 52.7329 19.4807 52.4412 20.1859C52.1495 20.8911 51.9996 21.6469 52 22.41C52.0003 23.4896 51.6998 24.548 51.1323 25.4665C50.5648 26.385 49.7527 27.1272 48.787 27.61L47.568 28.219C47.0974 28.4542 46.7015 28.8157 46.4246 29.263C46.1477 29.7104 46.0007 30.2259 46 30.752V30.788C45.9984 31.1707 46.0727 31.55 46.2184 31.9039C46.3641 32.2578 46.5784 32.5793 46.849 32.85L49.379 35.379C49.576 35.576 49.7322 35.8098 49.8388 36.0672C49.9453 36.3246 50.0001 36.6004 50 36.879V36.935C50.0004 37.206 49.9473 37.4745 49.8439 37.725C49.7405 37.9755 49.5886 38.2032 49.3971 38.395C49.2056 38.5868 48.9782 38.7389 48.7278 38.8428C48.4774 38.9466 48.209 39 47.938 39H47.888C47.2908 39.0012 46.6992 38.8845 46.1471 38.6567C45.5951 38.4288 45.0935 38.0942 44.671 37.672L42.315 35.315C41.5811 34.5807 40.7096 33.9984 39.7504 33.6011C38.7912 33.2039 37.7632 32.9996 36.725 33H36.716C35.5531 32.9999 34.4044 33.2554 33.3513 33.7486C32.2982 34.2419 31.3664 34.9606 30.622 35.854L28.976 37.829C28.6707 38.1956 28.2884 38.4905 27.8564 38.6929C27.4243 38.8952 26.9531 39.0001 26.476 39C26.0126 39.0002 25.5544 38.9013 25.1324 38.7098C24.7103 38.5184 24.3341 38.2388 24.029 37.89L21.856 35.406C20.6448 34.022 19.1517 32.9129 17.4769 32.153C15.8021 31.3931 13.9842 31 12.145 31C9.44976 31.0004 6.82209 30.1565 4.631 28.587C3.50774 27.7823 2.59245 26.7215 1.96099 25.4925C1.32954 24.2635 1.0001 22.9017 1 21.52Z" fill="#006837"/>
<path d="M58.879 5.99998C58.6004 5.99976 58.3245 6.0545 58.0671 6.16106C57.8097 6.26762 57.5759 6.42391 57.379 6.62098L56.419 7.58098C55.5107 8.48944 54.2787 8.99986 52.994 8.99998C52.0949 9.00268 51.2141 9.25432 50.4493 9.72702C49.6845 10.1997 49.0655 10.875 48.661 11.678L48.584 11.831L47.512 13.975C47.3251 14.3484 47.0177 14.6478 46.6395 14.8247C46.2613 15.0016 45.8344 15.0456 45.4281 14.9497C45.0217 14.8538 44.6596 14.6235 44.4004 14.2962C44.1412 13.9688 44.0002 13.5635 44 13.146C43.9995 11.132 43.1996 9.2006 41.776 7.77598L40.555 6.55498C39.5588 5.55957 38.2083 5.00028 36.8 4.99998C35.6254 4.99945 34.4773 4.65152 33.5 3.99998C32.5227 3.34839 31.3746 3.00046 30.2 2.99998H30.116C26.3467 2.99763 22.5879 2.60385 18.9 1.82498L17.007 1.42498C14.3982 0.874155 11.7045 0.859865 9.09 1.38298C7.08886 1.78144 5.25675 2.78052 3.838 4.24698C3.28622 5.51015 3.00094 6.87356 3 8.25198V18.52C3.0001 19.9017 3.32954 21.2635 3.96099 22.4925C4.59245 23.7215 5.50774 24.7823 6.631 25.587C8.82209 27.1565 11.4498 28.0004 14.145 28C15.9842 28 17.8021 28.3931 19.4769 29.153C21.1517 29.9129 22.6448 31.022 23.856 32.406L26.029 34.89C26.3388 35.2439 26.7216 35.5264 27.1511 35.718C27.5806 35.9096 28.0465 36.0058 28.5168 35.9999C28.9871 35.994 29.4505 35.8862 29.875 35.6838C30.2996 35.4815 30.6752 35.1895 30.976 34.828L32.622 32.854C33.3664 31.9606 34.2982 31.2418 35.3513 30.7486C36.4044 30.2554 37.5531 29.9998 38.716 30H38.725C39.7632 29.9996 40.7912 30.2039 41.7504 30.6011C42.7096 30.9983 43.5811 31.5807 44.315 32.315L46.671 34.672C47.5037 35.5005 48.6255 35.9734 49.8 35.991C49.6973 35.764 49.5555 35.5568 49.381 35.379L46.851 32.85C46.5801 32.5795 46.3654 32.258 46.2193 31.9041C46.0732 31.5502 45.9987 31.1708 46 30.788V30.752C46 30.2252 46.1466 29.7088 46.4236 29.2607C46.7005 28.8126 47.0968 28.4505 47.568 28.215L48.02 27.989L48.787 27.606C49.7503 27.1208 50.5605 26.3783 51.1276 25.4608C51.6948 24.5433 51.9967 23.4866 52 22.408C51.9996 21.6448 52.1495 20.8891 52.4412 20.1839C52.7329 19.4787 53.1606 18.8379 53.7 18.298L54.239 17.759L58.962 13.036C60.2577 11.727 60.9893 9.96273 61 8.12098C60.9997 7.55854 60.7762 7.01921 60.3785 6.6215C59.9808 6.2238 59.4414 6.00025 58.879 5.99998Z" fill="#009245"/>
<path d="M44 61C53.3888 61 61 53.3888 61 44C61 34.6112 53.3888 27 44 27C34.6112 27 27 34.6112 27 44C27 53.3888 34.6112 61 44 61Z" fill="#E6E6E6"/>
<path d="M44 27C40.4696 26.9984 37.0273 28.102 34.156 30.156C31.8228 33.4273 30.7251 37.4199 31.058 41.4241C31.3908 45.4284 33.1326 49.185 35.9738 52.0262C38.815 54.8674 42.5716 56.6092 46.5758 56.942C50.5801 57.2749 54.5727 56.1772 57.844 53.844C59.656 51.3032 60.7329 48.3122 60.9565 45.1994C61.18 42.0866 60.5415 38.9724 59.111 36.1987C57.6806 33.4251 55.5136 31.0992 52.8478 29.4764C50.1821 27.8537 47.1208 26.9969 44 27Z" fill="white"/>
<path d="M44 27C42.0567 27.0036 40.1285 27.3419 38.3 28H49.7C47.8715 27.3419 45.9433 27.0036 44 27Z" fill="#DD1F2D"/>
<path d="M27.493 48C27.8236 49.3919 28.33 50.736 29 52H59C59.6707 50.7361 60.1777 49.392 60.509 48H27.493Z" fill="#C1272D"/>
<path d="M60.507 40H27.493C27.1703 41.309 27.0048 42.6518 27 44H61C60.9952 42.6518 60.8297 41.309 60.507 40ZM56.04 32H31.96C30.7831 33.1814 29.7858 34.5291 29 36H59C58.2142 34.5291 57.2169 33.1814 56.04 32Z" fill="#DD1F2D"/>
<path d="M38.3 60H49.7C52.085 59.1552 54.2514 57.7886 56.041 56H31.96C33.7494 57.7885 35.9154 59.155 38.3 60Z" fill="#C1272D"/>
<path d="M44 27C39.4913 27 35.1673 28.7911 31.9792 31.9792C28.7911 35.1673 27 39.4913 27 44H44V27Z" fill="#063990"/>
<path d="M40 40H42V42H40V40ZM36 40H38V42H36V40ZM32 40H34V42H32V40ZM28 40H30V42H28V40ZM42 37H44V39H42V37ZM38 37H40V39H38V37ZM34 37H36V39H34V37ZM30 37H32V39H30V37ZM40 34H42V36H40V34ZM36 34H38V36H36V34ZM32 34H34V36H32V34ZM42 31H44V33H42V31ZM38 31H40V33H38V31ZM34 31H36V33H34V31ZM40 28H42V30H40V28ZM30 36V34.366C29.6362 34.8914 29.3023 35.4369 29 36H30ZM36 29V30H38V28.11C37.3148 28.3632 36.6468 28.6605 36 29Z" fill="white"/>
<path d="M48 57C49.9435 56.9985 51.872 56.6601 53.7 56H42.3C44.1285 56.6581 46.0567 56.9964 48 57ZM35.96 52H58.977C59.6603 50.7379 60.1795 49.3937 60.522 48H33C33.7858 49.4709 34.7831 50.8186 35.96 52Z" fill="#DD1F2D"/>
<path d="M40 40H42V42H40V40ZM36 40H38V42H36V40ZM32 40H34V42H32V40ZM38 37H40V39H38V37ZM34 37H36V39H34V37ZM30 37H32V39H30V37ZM40 34H42V36H40V34ZM36 34H38V36H36V34ZM32 34H34V36H32V34ZM38 31H40V33H38V31Z" fill="#1B1717"/>
<path d="M54.41 19L59.671 13.739C60.4111 13.0029 60.998 12.1274 61.3978 11.1631C61.7975 10.1988 62.0022 9.16487 62 8.12101C62 7.5037 61.817 6.90024 61.4741 6.38695C61.1312 5.87366 60.6437 5.47359 60.0734 5.23735C59.5031 5.00111 58.8755 4.9393 58.2701 5.05975C57.6646 5.18019 57.1085 5.47748 56.672 5.91401L55.712 6.87401C55.3559 7.23212 54.9324 7.51603 54.4658 7.70931C53.9993 7.9026 53.499 8.0014 52.994 8.00001C51.908 7.99627 50.8426 8.29689 49.9188 8.86779C48.9949 9.43869 48.2495 10.257 47.767 11.23L46.619 13.53C46.5332 13.7029 46.3914 13.8416 46.2167 13.9236C46.042 14.0055 45.8447 14.0259 45.6569 13.9814C45.4691 13.9368 45.302 13.83 45.1827 13.6783C45.0634 13.5266 44.999 13.339 45 13.146C45.0031 12.0167 44.7821 10.898 44.3499 9.85474C43.9177 8.81144 43.2828 7.86424 42.482 7.06801L41.262 5.84801C40.6774 5.26025 39.982 4.79429 39.2161 4.47708C38.4502 4.15987 37.629 3.99772 36.8 4.00001C35.8224 3.99998 34.8668 3.7101 34.054 3.16701C32.8867 2.39322 31.5144 1.98676 30.114 2.00001C26.4173 1.99641 22.731 1.60967 19.114 0.846005L17.22 0.446005C14.4782 -0.130802 11.648 -0.14645 8.9 0.400005C6.39349 0.906837 4.13886 2.26358 2.51722 4.24088C0.89558 6.21819 0.00640572 8.69478 0 11.252V21.52C0.00148552 23.0604 0.369341 24.5783 1.07319 25.9484C1.77705 27.3186 2.79671 28.5017 4.048 29.4C6.40749 31.0967 9.24179 32.0065 12.148 32C13.8436 32.0007 15.5195 32.3637 17.0634 33.0648C18.6073 33.7658 19.9836 34.7888 21.1 36.065L23.273 38.548C23.671 39.0031 24.1615 39.3681 24.7118 39.6185C25.262 39.8688 25.8594 39.9989 26.464 40C25.7005 43.3456 25.9095 46.8397 27.0665 50.0704C28.2234 53.3011 30.2801 56.1336 32.9939 58.2339C35.7077 60.3342 38.9655 61.6146 42.3831 61.9243C45.8008 62.234 49.2357 61.5599 52.2828 59.9817C55.3299 58.4034 57.8622 55.9867 59.581 53.0166C61.2999 50.0465 62.1335 46.6468 61.9838 43.2184C61.834 39.7901 60.7071 36.4761 58.7358 33.6672C56.7645 30.8582 54.0311 28.6716 50.858 27.365C51.5362 26.7301 52.0764 25.9623 52.445 25.1095C52.8135 24.2566 53.0024 23.337 53 22.408C52.9976 21.7749 53.121 21.1476 53.3631 20.5625C53.6051 19.9775 53.961 19.4464 54.41 19ZM34 31.53V33H36V31H34.708C35.2092 30.6367 35.7311 30.3028 36.271 30H38V29.178C38.6516 28.9172 39.3197 28.6997 40 28.527V30H42V28.139C42.33 28.097 42.664 28.072 43 28.051V31H42V33H43V37H42V39H43V43H28.051C28.072 42.664 28.097 42.33 28.139 42H30V40H28.527C29.3914 36.6609 31.311 33.6902 34 31.53ZM53.292 31H45V28.051C47.9865 28.2337 50.8608 29.2559 53.292 31ZM59.192 39H45V37H58.365C58.6849 37.6471 58.9602 38.3154 59.189 39H59.192ZM28.811 49H59.189C58.9602 49.6847 58.6849 50.3529 58.365 51H29.635C29.3151 50.3529 29.0398 49.6847 28.811 49ZM28.292 47C28.1694 46.3391 28.0889 45.6711 28.051 45H59.951C59.9131 45.6711 59.8326 46.3391 59.71 47H28.292ZM45 43V41H59.708C59.8306 41.6609 59.9111 42.3289 59.949 43H45ZM38.485 59C37.1421 58.5056 35.8717 57.8329 34.708 57H53.292C52.1283 57.8329 50.8579 58.5056 49.515 59H38.485ZM55.585 55H32.411C31.8152 54.3781 31.2705 53.7093 30.782 53H57.218C56.7295 53.7093 56.1848 54.3781 55.589 55H55.585ZM57.214 35H45V33H55.589C56.1848 33.6219 56.7295 34.2907 57.218 35H57.214ZM51 22.408C51.0015 23.264 50.773 24.1048 50.3383 24.8422C49.9036 25.5797 49.2787 26.1868 48.529 26.6C44.188 25.446 39.5717 25.9683 35.5983 28.063C31.625 30.1577 28.5856 33.6714 27.085 37.905C26.8873 37.9644 26.6824 37.9964 26.476 38C26.1551 38.0001 25.8379 37.9315 25.5458 37.7989C25.2536 37.6662 24.9932 37.4726 24.782 37.231L22.609 34.748C21.3041 33.2564 19.6953 32.061 17.8906 31.2421C16.0858 30.4232 14.1268 29.9997 12.145 30C9.65769 30.0047 7.23215 29.2255 5.213 27.773C4.21982 27.0603 3.41045 26.1216 2.85177 25.0343C2.29309 23.947 2.00113 22.7424 2 21.52V11.252C2.00452 9.15736 2.7323 7.12856 4.06028 5.50867C5.38825 3.88879 7.23492 2.77724 9.288 2.36201C11.7689 1.8678 14.3242 1.88073 16.8 2.40001L18.694 2.80001C22.4772 3.59858 26.3334 4.00076 30.2 4.00001C31.1779 3.99917 32.1339 4.28875 32.947 4.83201C34.0877 5.59357 35.4285 6.00001 36.8 6.00001C37.3663 5.99832 37.9272 6.10899 38.4504 6.32562C38.9736 6.54224 39.4487 6.86052 39.848 7.26201L41.068 8.48201C41.6825 9.09303 42.1696 9.81988 42.5012 10.6205C42.8329 11.421 43.0024 12.2795 43 13.146C42.9999 13.789 43.217 14.4132 43.616 14.9174C44.0151 15.4216 44.5727 15.7763 45.1985 15.924C45.8243 16.0717 46.4816 16.0037 47.064 15.7311C47.6463 15.4585 48.1196 14.9972 48.407 14.422L49.556 12.122C49.8735 11.4824 50.3639 10.9445 50.9716 10.5695C51.5793 10.1944 52.2799 9.99711 52.994 10C53.7618 10.0023 54.5224 9.8522 55.2317 9.55832C55.941 9.26444 56.5849 8.83265 57.126 8.28801L58.086 7.32801C58.2428 7.1711 58.4426 7.06422 58.6601 7.02091C58.8777 6.97761 59.1032 6.99981 59.3081 7.08471C59.513 7.16961 59.6881 7.31339 59.8113 7.49786C59.9345 7.68233 60.0001 7.8992 60 8.12101C60.0021 8.90281 59.8491 9.67727 59.5499 10.3996C59.2507 11.1219 58.8113 11.7777 58.257 12.329L53 17.59C52.3643 18.2207 51.8602 18.9714 51.5169 19.7985C51.1736 20.6255 50.9979 21.5125 51 22.408Z" fill="#1B1717"/>
</svg>
