<svg width="62" height="62" viewBox="0 0 62 62" fill="none" xmlns="http://www.w3.org/2000/svg">
<path d="M54.41 19L59.671 13.739C60.4111 13.0029 60.998 12.1274 61.3978 11.1631C61.7975 10.1988 62.0022 9.16487 62 8.12101C62 7.5037 61.817 6.90024 61.4741 6.38695C61.1312 5.87366 60.6437 5.47359 60.0734 5.23735C59.5031 5.00111 58.8755 4.9393 58.2701 5.05975C57.6646 5.18019 57.1085 5.47748 56.672 5.91401L55.712 6.87401C55.3559 7.23212 54.9324 7.51603 54.4658 7.70931C53.9993 7.9026 53.499 8.0014 52.994 8.00001C51.908 7.99627 50.8426 8.29689 49.9188 8.86779C48.9949 9.43869 48.2495 10.257 47.767 11.23L46.619 13.53C46.5332 13.7029 46.3914 13.8416 46.2167 13.9236C46.042 14.0055 45.8447 14.0259 45.6569 13.9814C45.4691 13.9368 45.302 13.83 45.1827 13.6783C45.0634 13.5266 44.999 13.339 45 13.146C45.0031 12.0167 44.7821 10.898 44.3499 9.85474C43.9177 8.81144 43.2828 7.86424 42.482 7.06801L41.262 5.84801C40.6774 5.26025 39.982 4.79429 39.2161 4.47708C38.4502 4.15987 37.629 3.99772 36.8 4.00001C35.8224 3.99998 34.8668 3.7101 34.054 3.16701C32.8867 2.39322 31.5144 1.98676 30.114 2.00001C26.4173 1.99641 22.731 1.60967 19.114 0.846005L17.22 0.446005C14.4782 -0.130802 11.648 -0.14645 8.9 0.400005C6.39349 0.906837 4.13886 2.26358 2.51722 4.24088C0.89558 6.21819 0.00640572 8.69478 0 11.252V21.52C0.00148552 23.0604 0.369341 24.5783 1.07319 25.9484C1.77705 27.3186 2.79671 28.5017 4.048 29.4C6.40749 31.0967 9.24179 32.0065 12.148 32C13.8436 32.0007 15.5195 32.3637 17.0634 33.0648C18.6073 33.7658 19.9836 34.7888 21.1 36.065L23.273 38.548C23.671 39.0031 24.1615 39.3681 24.7118 39.6185C25.262 39.8688 25.8594 39.9989 26.464 40C25.7005 43.3456 25.9095 46.8397 27.0665 50.0704C28.2234 53.3011 30.2801 56.1336 32.9939 58.2339C35.7077 60.3342 38.9655 61.6146 42.3831 61.9243C45.8008 62.234 49.2357 61.5599 52.2828 59.9817C55.3299 58.4034 57.8622 55.9867 59.581 53.0166C61.2999 50.0465 62.1335 46.6468 61.9838 43.2184C61.834 39.7901 60.7071 36.4761 58.7358 33.6672C56.7645 30.8582 54.0311 28.6716 50.858 27.365C51.5362 26.7301 52.0764 25.9623 52.445 25.1095C52.8135 24.2566 53.0024 23.337 53 22.408C52.9976 21.7749 53.121 21.1476 53.3631 20.5625C53.6051 19.9775 53.961 19.4464 54.41 19ZM34 31.53V33H36V31H34.708C35.2092 30.6367 35.7311 30.3028 36.271 30H38V29.178C38.6516 28.9172 39.3197 28.6997 40 28.527V30H42V28.139C42.33 28.097 42.664 28.072 43 28.051V31H42V33H43V37H42V39H43V43H28.051C28.072 42.664 28.097 42.33 28.139 42H30V40H28.527C29.3914 36.6609 31.311 33.6902 34 31.53ZM53.292 31H45V28.051C47.9865 28.2337 50.8608 29.2559 53.292 31ZM59.192 39H45V37H58.365C58.6849 37.6471 58.9602 38.3154 59.189 39H59.192ZM28.811 49H59.189C58.9602 49.6847 58.6849 50.3529 58.365 51H29.635C29.3151 50.3529 29.0398 49.6847 28.811 49ZM28.292 47C28.1694 46.3391 28.0889 45.6711 28.051 45H59.951C59.9131 45.6711 59.8326 46.3391 59.71 47H28.292ZM45 43V41H59.708C59.8306 41.6609 59.9111 42.3289 59.949 43H45ZM38.485 59C37.1421 58.5056 35.8717 57.8329 34.708 57H53.292C52.1283 57.8329 50.8579 58.5056 49.515 59H38.485ZM55.585 55H32.411C31.8152 54.3781 31.2705 53.7093 30.782 53H57.218C56.7295 53.7093 56.1848 54.3781 55.589 55H55.585ZM57.214 35H45V33H55.589C56.1848 33.6219 56.7295 34.2907 57.218 35H57.214ZM51 22.408C51.0015 23.264 50.773 24.1048 50.3383 24.8422C49.9036 25.5797 49.2787 26.1868 48.529 26.6C44.188 25.446 39.5717 25.9683 35.5983 28.063C31.625 30.1577 28.5856 33.6714 27.085 37.905C26.8873 37.9644 26.6824 37.9964 26.476 38C26.1551 38.0001 25.8379 37.9315 25.5458 37.7989C25.2536 37.6662 24.9932 37.4726 24.782 37.231L22.609 34.748C21.3041 33.2564 19.6953 32.061 17.8906 31.2421C16.0858 30.4232 14.1268 29.9997 12.145 30C9.65769 30.0047 7.23215 29.2255 5.213 27.773C4.21982 27.0603 3.41045 26.1216 2.85177 25.0343C2.29309 23.947 2.00113 22.7424 2 21.52V11.252C2.00452 9.15736 2.7323 7.12856 4.06028 5.50867C5.38825 3.88879 7.23492 2.77724 9.288 2.36201C11.7689 1.8678 14.3242 1.88073 16.8 2.40001L18.694 2.80001C22.4772 3.59858 26.3334 4.00076 30.2 4.00001C31.1779 3.99917 32.1339 4.28875 32.947 4.83201C34.0877 5.59357 35.4285 6.00001 36.8 6.00001C37.3663 5.99832 37.9272 6.10899 38.4504 6.32562C38.9736 6.54224 39.4487 6.86052 39.848 7.26201L41.068 8.48201C41.6825 9.09303 42.1696 9.81988 42.5012 10.6205C42.8329 11.421 43.0024 12.2795 43 13.146C42.9999 13.789 43.217 14.4132 43.616 14.9174C44.0151 15.4216 44.5727 15.7763 45.1985 15.924C45.8243 16.0717 46.4816 16.0037 47.064 15.7311C47.6463 15.4585 48.1196 14.9972 48.407 14.422L49.556 12.122C49.8735 11.4824 50.3639 10.9445 50.9716 10.5695C51.5793 10.1944 52.2799 9.99711 52.994 10C53.7618 10.0023 54.5224 9.8522 55.2317 9.55832C55.941 9.26444 56.5849 8.83265 57.126 8.28801L58.086 7.32801C58.2428 7.1711 58.4426 7.06422 58.6601 7.02091C58.8777 6.97761 59.1032 6.99981 59.3081 7.08471C59.513 7.16961 59.6881 7.31339 59.8113 7.49786C59.9345 7.68233 60.0001 7.8992 60 8.12101C60.0021 8.90281 59.8491 9.67727 59.5499 10.3996C59.2507 11.1219 58.8113 11.7777 58.257 12.329L53 17.59C52.3643 18.2207 51.8602 18.9714 51.5169 19.7985C51.1736 20.6255 50.9979 21.5125 51 22.408Z" fill="#1B1717"/>
</svg>
